<svg width="200" height="32" viewBox="0 0 200 32" fill="none" xmlns="http://www.w3.org/2000/svg">
  <path fill-rule="evenodd" clip-rule="evenodd" d="M27.5894 4.6633C27.5894 8.11808 22.3976 10.9187 15.9932 10.9187C9.58884 10.9187 4.39706 8.11808 4.39706 4.6633C4.39706 3.12933 5.4206 1.72433 7.11936 0.636176C3.50058 2.15395 1.15809 4.57687 1.15809 7.30674C1.15809 11.9035 7.80008 15.6299 15.9934 15.6299C24.1867 15.6299 30.8287 11.9035 30.8287 7.30674C30.8287 4.57661 28.4858 2.15349 24.8664 0.635742C26.5656 1.72395 27.5894 3.12913 27.5894 4.6633ZM15.9951 31.3448H14.0978C12.6542 31.3448 11.4077 30.3393 11.1109 28.9353L10.6065 26.5443L9.01878 19.0996C9.01878 19.0996 7.24337 18.9523 4.3721 18.1427C1.50083 17.3331 0.94925 14.8928 1.35386 13.6495C1.63422 12.788 1.93373 12.116 1.93373 12.116C5.74178 15.6245 9.30262 16.3481 13.4612 16.674L14.1801 20.0728L15.4602 26.1539C15.5078 26.3819 15.7183 26.5443 15.9951 26.5443V31.3448ZM15.9955 31.3448H17.8928C19.3364 31.3448 20.5828 30.3393 20.8797 28.9353L21.3841 26.5443L22.9718 19.0996C22.9718 19.0996 24.7472 18.9523 27.6185 18.1427C30.4898 17.3331 31.0413 14.8928 30.6367 13.6495C30.3564 12.788 30.0569 12.116 30.0569 12.116C26.2488 15.6245 22.688 16.3481 18.5293 16.674L17.8105 20.0728L16.5304 26.1539C16.4828 26.3819 16.2723 26.5443 15.9955 26.5443V31.3448Z" fill="white"/>
  <text x="35" y="30" font-family="Arial" font-size="25" fill="white">360xtips</text>
</svg>
