<svg width="32" height="32" viewBox="0 0 32 32" fill="none" xmlns="http://www.w3.org/2000/svg">
<path d="M31.5177 19.8705C29.3808 28.442 20.6992 33.6584 12.1267 31.521C3.55778 29.3841 -1.65868 20.702 0.479177 12.1312C2.61515 3.55871 11.2967 -1.65814 19.8666 0.478775C28.4385 2.61569 33.6549 11.2986 31.5177 19.8705Z" fill="#F7931A"/>
<path d="M23.0535 13.7204C23.3719 11.5912 21.7509 10.4466 19.5342 9.68311L20.2533 6.79886L18.4976 6.36137L17.7975 9.16969C17.336 9.05457 16.8619 8.94609 16.3908 8.83856L17.0959 6.01171L15.3413 5.57422L14.6218 8.45754C14.2398 8.37057 13.8647 8.28462 13.5007 8.19406L13.5027 8.18499L11.0815 7.58037L10.6145 9.45561C10.6145 9.45561 11.9171 9.7542 11.8897 9.77258C12.6006 9.95003 12.7292 10.4207 12.7079 10.7937L11.8887 14.0796C11.9377 14.092 12.0012 14.11 12.0712 14.1381C12.0127 14.1236 11.9503 14.1077 11.8857 14.0922L10.7375 18.6952C10.6506 18.9112 10.4301 19.2354 9.933 19.1123C9.9506 19.1378 8.65691 18.7939 8.65691 18.7939L7.78522 20.8036L10.07 21.3732C10.4951 21.4798 10.9116 21.5913 11.3218 21.6962L10.5953 24.6135L12.349 25.051L13.0685 22.1646C13.5476 22.2947 14.0125 22.4147 14.4677 22.5278L13.7506 25.4005L15.5064 25.838L16.2329 22.9261C19.2268 23.4927 21.4779 23.2643 22.4255 20.5563C23.189 18.3761 22.3875 17.1185 20.8124 16.2984C21.9596 16.0339 22.8231 15.2791 23.0535 13.7204ZM19.042 19.3455C18.4994 21.5258 14.8286 20.3472 13.6384 20.0517L14.6026 16.1867C15.7926 16.4838 19.609 17.0718 19.042 19.3455ZM19.585 13.6889C19.0901 15.672 16.0348 14.6645 15.0436 14.4174L15.9178 10.9121C16.9089 11.1592 20.1005 11.6203 19.585 13.6889Z" fill="white"/>
</svg>
