<svg width="24" height="24" viewBox="0 0 24 24" fill="none" xmlns="http://www.w3.org/2000/svg">
<rect width="24" height="24" rx="12" fill="#8247E5"/>
<g clip-path="url(#clip0_515_363)">
<path d="M15.5729 9.65372C15.3177 9.51044 14.9896 9.51044 14.6979 9.65372L12.6562 10.8358L11.2708 11.5881L9.26562 12.7701C9.01042 12.9134 8.68229 12.9134 8.39062 12.7701L6.82292 11.8388C6.56771 11.6955 6.38542 11.4089 6.38542 11.0866V9.29552C6.38542 9.00895 6.53125 8.72238 6.82292 8.54328L8.39062 7.64775C8.64583 7.50447 8.97396 7.50447 9.26562 7.64775L10.8333 8.5791C11.0885 8.72238 11.2708 9.00895 11.2708 9.33134V10.5134L12.6562 9.72537V8.50746C12.6562 8.22089 12.5104 7.93432 12.2187 7.75522L9.30208 6.07164C9.04687 5.92835 8.71875 5.92835 8.42708 6.07164L5.4375 7.79104C5.14583 7.93432 5 8.22089 5 8.50746V11.8746C5 12.1612 5.14583 12.4478 5.4375 12.6269L8.39062 14.3104C8.64583 14.4537 8.97396 14.4537 9.26562 14.3104L11.2708 13.1642L12.6562 12.3761L14.6615 11.2298C14.9167 11.0866 15.2448 11.0866 15.5365 11.2298L17.1042 12.1254C17.3594 12.2686 17.5417 12.5552 17.5417 12.8776V14.6686C17.5417 14.9552 17.3958 15.2418 17.1042 15.4209L15.5729 16.3164C15.3177 16.4597 14.9896 16.4597 14.6979 16.3164L13.1302 15.4209C12.875 15.2776 12.6927 14.991 12.6927 14.6686V13.5224L11.3073 14.3104V15.4925C11.3073 15.7791 11.4531 16.0657 11.7448 16.2448L14.6979 17.9283C14.9531 18.0716 15.2812 18.0716 15.5729 17.9283L18.526 16.2448C18.7812 16.1015 18.9635 15.8149 18.9635 15.4925V12.0895C18.9635 11.803 18.8177 11.5164 18.526 11.3373L15.5729 9.65372Z" fill="white"/>
</g>
<defs>
<clipPath id="clip0_515_363">
<rect width="14" height="12" fill="white" transform="translate(5 6)"/>
</clipPath>
</defs>
</svg>
